PathFileType	4	(X/Y/Z)	TVC_20_BWA2_walk_RCNL2025.trc
DataRate	CameraRate	NumFrames	NumMarkers	Units	OrigDataRate	OrigDataStartFrame	OrigNumFrames
100	100	8	27	mm	100	194	221
Frame#	Time	R_Shoulder			L_Shoulder			C7			J_Notch			R_Elbow			L_Elbow			R_Wrist			L_Wrist			R_Asis			L_Asis			R_Psis			L_Psis			Sacral			Thoracic			Sternum			R_Thigh_Lateral			R_Knee_Lateral			R_Shank_Lateral			R_Ankle_Lateral			R_Heel			R_Toe			L_Thigh_Lateral			L_Knee_Lateral			L_Shank_Lateral			L_Ankle_Lateral			L_Heel			L_Toe		
		X1	Y1	Z1	X2	Y2	Z2	X3	Y3	Z3	X4	Y4	Z4	X5	Y5	Z5	X6	Y6	Z6	X7	Y7	Z7	X8	Y8	Z8	X9	Y9	Z9	X10	Y10	Z10	X11	Y11	Z11	X12	Y12	Z12	X13	Y13	Z13	X14	Y14	Z14	X15	Y15	Z15	X16	Y16	Z16	X17	Y17	Z17	X18	Y18	Z18	X19	Y19	Z19	X20	Y20	Z20	X21	Y21	Z21	X22	Y22	Z22	X23	Y23	Z23	X24	Y24	Z24	X25	Y25	Z25	X26	Y26	Z26	X27	Y27	Z27
194	1.93000000	1843.307251	1395.247192	107.738045	1812.980957	1415.230469	-258.293762	1805.995239	1461.823486	-63.176884	1919.864380	1327.510986	-73.774971	1758.927979	1097.199463	214.973267	1800.522949	1109.251343	-380.505859	1913.819397	886.936310	210.904251	1992.998291	932.431091	-367.327774	1865.290039	999.993835	68.876228	1873.675781	1006.454041	-208.648560	1715.950439	999.868530	-25.922331	1704.756714	995.680359	-115.023392	1710.353577	997.774445	-70.472861	1688.377563	1230.761597	-77.671051	1931.937134	1185.784302	-82.889824	1946.895386	686.743286	141.791855	2014.688232	495.441498	68.699120	1955.795044	323.640533	126.166557	1909.285889	98.700409	49.915901	1859.126465	81.807480	2.384508	2045.704224	44.722569	31.244249	1807.282227	638.249573	-271.706940	1810.654175	477.150146	-190.455002	1755.980835	300.160675	-244.892685	1693.918213	67.967789	-157.808533	1645.558960	61.138390	-118.686485	1831.722168	31.693153	-127.559006
195	1.94000000	1855.679077	1393.187500	107.997025	1825.350464	1413.640503	-257.959137	1818.254761	1459.988037	-62.868450	1931.999512	1325.442139	-73.671730	1769.637573	1095.412476	214.720978	1815.516968	1108.235229	-381.562653	1923.700439	884.537201	211.741516	2010.371338	934.197083	-366.797684	1877.573364	997.903992	68.822586	1885.054321	1004.833252	-208.917709	1728.000244	997.916382	-25.677050	1716.245361	994.006165	-114.752403	1722.122803	995.961273	-70.214726	1700.331787	1229.060059	-77.244110	1943.775024	1183.652100	-83.009415	1958.583130	684.924072	141.773529	2028.765869	495.054291	68.472336	1979.084351	320.678650	126.635635	1949.657349	93.024910	51.071449	1900.977295	73.262314	3.136591	2089.396240	46.776123	32.982040	1814.835693	637.205017	-272.038818	1815.190796	476.161346	-190.650925	1758.471802	299.835327	-245.031403	1694.009155	68.233620	-157.493988	1645.711060	61.687790	-118.269798	1831.651489	31.657242	-127.474663
196	1.95000000	1868.119019	1391.013306	108.315689	1837.690063	1411.892578	-257.543091	1830.509399	1457.999756	-62.492229	1944.149902	1323.242798	-73.517845	1780.518311	1093.453247	214.478424	1830.495483	1107.052124	-382.429565	1933.691467	881.924164	212.517693	2027.498352	935.624207	-366.108368	1889.986938	995.607300	68.782158	1896.441284	1003.128357	-209.185120	1740.150879	995.763977	-25.341700	1727.792358	992.162598	-114.385681	1733.971619	993.963287	-69.863690	1712.323608	1227.165527	-76.682907	1955.654419	1181.397339	-83.076866	1969.304565	682.426697	141.756882	2042.211548	494.208527	68.285072	2001.641846	317.938873	127.105148	1989.572144	88.527359	52.320221	1942.529175	66.093765	3.951929	2132.190674	49.868290	34.770008	1822.537842	636.117432	-272.359863	1819.892822	475.156525	-190.823471	1761.072632	299.539795	-245.159470	1694.126831	68.567406	-157.165604	1645.865601	62.331272	-117.821823	1831.582153	31.637602	-127.399406
197	1.96000000	1880.620483	1388.745605	108.698120	1850.002686	1410.024658	-257.043335	1842.760376	1455.885498	-62.041428	1956.320801	1320.947754	-73.307953	1791.575806	1091.346802	214.267670	1845.440063	1105.726440	-383.087738	1943.801208	879.125092	213.233604	2044.368530	936.723328	-365.263397	1902.541138	993.136597	68.749870	1907.848755	1001.359253	-209.450226	1752.411621	993.439209	-24.912535	1739.417847	990.176758	-113.916481	1745.914734	991.807983	-69.414508	1724.364380	1225.107300	-75.998642	1967.589111	1179.058350	-83.097717	1979.234619	679.328064	141.755615	2055.148438	492.963074	68.123734	2023.449585	315.419769	127.530647	2028.690918	85.198967	53.598171	1983.396729	60.303387	4.760421	2173.758301	53.884216	36.579853	1830.361694	635.003967	-272.663940	1824.776001	474.143280	-190.974197	1763.790039	299.285950	-245.274567	1694.276489	68.983932	-156.827240	1646.029663	63.090179	-117.355209	1831.520630	31.639992	-127.339478
198	1.97000000	1893.176147	1386.403198	109.148705	1862.293823	1408.072876	-256.458588	1855.010864	1453.672607	-61.510490	1968.519043	1318.590088	-73.036003	1802.815796	1089.116699	214.110748	1860.328857	1104.281860	-383.522400	1954.041504	876.168396	213.891243	2060.971558	937.508606	-364.266922	1915.242798	990.524719	68.724701	1919.292358	999.543274	-209.708740	1764.788940	990.974365	-24.387651	1751.142090	988.078857	-113.340370	1757.965515	989.526611	-68.864011	1736.466064	1222.917358	-75.203278	1979.593140	1176.671021	-83.073845	1988.605713	675.740540	141.785828	2067.720703	491.393036	67.975861	2044.496094	313.109772	127.868950	2066.648193	82.968796	54.834843	2023.166382	55.827564	5.487495	2213.753174	58.650738	38.377422	1838.282227	633.883057	-272.944763	1829.861938	473.128418	-191.107346	1766.637695	299.084686	-245.377502	1694.463867	69.498344	-156.488449	1646.210205	63.987366	-116.889938	1831.472900	31.668507	-127.300171
199	1.98000000	1905.778442	1384.004028	109.672333	1874.572388	1406.070312	-255.787964	1867.267456	1451.388428	-60.894985	1980.753662	1316.200562	-72.695137	1814.245239	1086.784546	214.028076	1875.138306	1102.740234	-383.722839	1964.427551	873.082428	214.493523	2077.296997	937.996399	-363.123581	1928.095947	987.805481	68.709518	1930.791504	997.695496	-209.953262	1777.288330	988.405396	-23.767641	1762.984863	985.901917	-112.655502	1770.136597	987.153656	-68.211572	1748.642334	1220.629639	-74.308640	1991.681763	1174.267578	-83.003059	1997.691895	671.805786	141.862518	2080.086426	489.585907	67.831306	2064.775391	310.988586	128.081100	2103.068359	81.705688	55.956375	2061.411621	52.541538	6.058937	2251.824951	63.939751	40.119183	1846.281738	632.773132	-273.196106	1835.179077	472.117432	-191.229324	1769.636841	298.945648	-245.472626	1694.695312	70.126396	-156.165131	1646.415161	65.047134	-116.453072	1831.443970	31.724669	-127.285332
200	1.99000000	1918.422241	1381.564819	110.274521	1886.851685	1404.047485	-255.030350	1879.541382	1449.060669	-60.191322	1993.036865	1313.807861	-72.277733	1825.872681	1084.370239	214.037048	1889.843872	1101.122070	-383.682404	1974.978455	869.895538	215.044289	2093.334595	938.204620	-361.838776	1941.103394	985.014771	68.710701	1942.369995	995.829346	-210.174072	1789.915771	985.771179	-23.056004	1774.966553	983.681152	-111.862846	1782.441162	984.726166	-67.459425	1760.908936	1218.278809	-73.325729	2003.871948	1171.876587	-82.879311	2006.788452	667.684570	141.995880	2092.412109	487.636169	67.682777	2084.288086	309.029236	128.135330	2137.582520	81.226349	56.889595	2097.712402	50.269581	6.406631	2287.637207	69.475571	41.749855	1854.354614	631.691772	-273.412262	1840.762329	471.114136	-191.348236	1772.817627	298.877014	-245.567841	1694.978760	70.885239	-155.879440	1646.653809	66.295692	-116.077713	1831.437500	31.806787	-127.297180
201	2.00000000	1931.106812	1379.102661	110.961563	1899.150269	1402.031982	-254.183853	1891.849121	1446.716675	-59.396236	2005.386108	1311.438965	-71.775482	1837.708496	1081.892090	214.150726	1904.422119	1099.446289	-383.397980	1985.717957	866.636169	215.548386	2109.073853	938.151611	-360.418777	1954.269531	982.191284	68.737564	1954.057617	993.956787	-210.359924	1802.680786	983.112305	-22.259125	1787.109741	981.452759	-110.966347	1794.895264	982.282532	-66.612736	1773.284790	1215.898315	-72.264473	2016.183838	1169.524414	-82.693275	2016.188354	663.545044	142.188019	2104.863281	485.639465	67.525711	2103.044189	307.201019	128.009552	2169.849609	81.309288	57.567104	2131.675537	48.800762	6.474865	2320.886475	74.946884	43.201744	1862.512573	630.654846	-273.588196	1846.654907	470.119904	-191.473373	1776.219849	298.885468	-245.673965	1695.326416	71.794594	-155.658859	1646.938965	67.762352	-115.801147	1831.456177	31.909710	-127.336304
